<?xml version="1.0" encoding="UTF-8"?>
<svg width="371px" height="242px" viewBox="0 0 371 242" version="1.1" xmlns="http://www.w3.org/2000/svg" xmlns:xlink="http://www.w3.org/1999/xlink">
    <title>编组 3备份</title>
    <g id="页面-1" stroke="none" stroke-width="1" fill="none" fill-rule="evenodd" opacity="0.50125558">
        <g id="CircleSwap-CIR备份-8" transform="translate(-774.000000, -279.000000)">
            <g id="编组-3备份" transform="translate(774.000000, 279.000000)">
                <g id="编组" transform="translate(26.500000, 19.000000)" fill="#00DA7A" fill-rule="nonzero" opacity="0.3">
                    <path d="M17.755988,146.372429 C19.0924765,146.399022 20.1606044,147.496 20.1606044,148.840297 C20.1606044,150.203209 19.1057615,151.309495 17.755988,151.309495 L12.8006181,151.309495 L12.8006181,156.295758 C12.7774614,157.63634 11.6864632,158.711731 10.3468466,158.714429 C9.70100686,158.724519 9.07820936,158.474417 8.61844548,158.020341 C8.15694132,157.564596 7.89630667,156.943316 7.89440366,156.294429 L7.89440366,151.308165 L2.93903376,151.308165 C1.5999555,151.277767 0.531180127,150.180878 0.534410039,148.840297 C0.534410039,147.478714 1.58926025,146.372429 2.93903376,146.372429 L7.89440366,146.372429 L7.89440366,141.386165 C7.92097389,140.043198 9.01035829,138.967495 10.3468466,138.967495 C11.7019343,138.967495 12.8006181,140.028571 12.8006181,141.387495 L12.8006181,146.373758 L17.755988,146.373758 L17.755988,146.372429 Z M158.391509,208.07844 L34.8659633,208.07844 C33.5641077,208.079259 32.3160214,207.558812 31.3998614,206.633088 C30.4813909,205.704627 29.968685,204.449249 29.9743156,203.142703 C29.9743156,200.416879 32.1969718,198.205637 34.8659633,198.205637 L57.1186293,198.205637 C55.3999124,195.208821 54.4991459,191.812195 54.5067643,188.356769 L54.5067643,45.1499451 C54.5073351,39.91809 56.5785708,34.8994945 60.2672156,31.1923957 C63.94384,27.4964838 68.9419666,25.421696 74.1528792,25.4282747 L88.8542523,25.4282747 L88.8542523,20.4672747 C88.8544703,15.2356098 90.9252174,10.217041 94.6133752,6.50972527 C98.2903243,2.81348613 103.288995,0.738671156 108.500367,0.745572638 L226.220292,0.745572638 C231.432407,0.736224817 236.432491,2.81027242 240.109941,6.50706587 C243.79876,10.2148114 245.868759,15.2348387 245.866407,20.4672747 L245.866407,163.675429 C245.872547,167.130588 244.970897,170.526631 243.251885,173.522967 L287.57521,173.522967 C290.288042,173.522967 292.486739,176.778 292.486739,178.460033 C292.486739,180.142066 290.302656,183.395769 287.579195,183.395769 L211.520247,183.395769 L211.520247,188.356769 C211.526216,191.8125 210.624098,195.209039 208.904397,198.205637 L211.534861,198.205637 C214.23308,198.205637 216.426462,200.396934 216.426462,203.142703 C216.426462,205.867198 214.203852,208.07844 211.534861,208.07844 L185.721768,208.07844 C188.019454,211.959722 187.399562,216.905652 184.21523,220.098659 C182.382118,221.954272 179.883609,223 177.276383,223 C174.672489,223 172.174877,221.956209 170.338866,220.098659 L158.391509,208.07844 L158.391509,208.07844 Z M191.932587,198.205637 C197.330353,198.205637 201.706489,193.812407 201.706489,188.307571 L201.706489,44.9172527 C201.706489,39.5852747 197.468519,35.3010769 192.236817,35.3010769 L73.7901939,35.3010769 C68.559821,35.3010769 64.3205221,39.6065495 64.3205221,44.9172527 L64.3205221,188.308901 C64.3205221,193.773846 68.7365139,198.205637 74.0891103,198.205637 L148.572437,198.205637 L146.050911,195.663308 C143.560826,193.165919 142.58881,189.529854 143.500158,186.121593 L138.867618,181.45578 C124.435933,192.26467 104.160101,190.041462 92.3827946,176.357824 C80.6041595,162.675516 81.3122594,142.168011 94.0062427,129.340681 C106.738753,116.485429 127.185964,115.730176 140.821867,127.61211 C154.456441,139.492714 156.633881,159.961659 145.805135,174.476341 L150.441661,179.140824 C153.83384,178.220331 157.458438,179.199416 159.927275,181.703099 L176.32915,198.205637 L191.932587,198.205637 L191.932587,198.205637 Z M226.284061,173.522967 C231.685813,173.496374 236.051321,169.084527 236.053978,163.650165 L236.053978,20.4925384 C236.053978,15.0222747 231.676513,10.6184067 226.284061,10.6184067 L108.431284,10.6184067 C103.03219,10.6489892 98.6693388,15.0595056 98.6666817,20.4925384 L98.6666817,25.4282747 L191.874132,25.4282747 C197.086056,25.4185432 202.086113,27.4921009 205.763782,31.1884067 C209.452926,34.8964786 211.522951,39.9170485 211.520247,45.1499451 L211.520247,173.522967 L226.284061,173.522967 L226.284061,173.522967 Z M141.993619,147.388297 C139.72584,138.869099 133.111152,132.215429 124.643182,129.932385 C116.170233,127.6518 107.125956,130.090024 100.94376,136.321451 C91.3611646,145.96156 91.3611646,161.591835 100.94376,171.233275 C110.526356,180.873385 126.062038,180.873385 135.644634,171.233275 C141.847638,164.98085 144.265664,155.901332 141.994947,147.388297 L141.993619,147.388297 Z M83.946684,55.048011 C83.946684,52.3221868 86.1414198,50.1136043 88.8489384,50.1109451 L142.826599,50.1109451 C145.536775,50.1109451 147.734143,52.3208572 147.734143,55.048011 C147.734143,57.7738352 145.536775,59.983764 142.826599,59.983764 L88.8542523,59.983764 C87.5503287,59.9871608 86.2992791,59.4681112 85.3801794,58.5423847 C84.4581821,57.6140001 83.9425299,56.3569936 83.946684,55.048011 Z M88.819711,74.7936153 L167.394871,74.7936153 C170.08379,74.7936153 172.266544,76.9849121 172.266544,79.7293516 C172.266544,82.4551758 170.08379,84.6664175 167.394871,84.6664175 L88.8183824,84.6664175 C87.5189665,84.6647353 86.2742226,84.1428489 85.3615802,83.2170769 C84.4461755,82.2884077 83.9367681,81.0338718 83.9452733,79.7293516 C83.9452733,77.004857 86.1294633,74.7936153 88.8183824,74.7936153 L88.819711,74.7936153 Z" id="形状"></path>
                </g>
                <path d="M110.446709,123.412022 C110.446709,120.686198 112.636106,118.476286 115.343624,118.476286 L149.709712,118.476286 C151.013913,118.478033 152.263688,118.999716 153.182652,119.925964 C154.101615,120.852213 154.614048,122.106709 154.606706,123.412022 C154.606706,126.137846 152.418559,128.349091 149.709712,128.349091 L115.344953,128.349091 C114.042829,128.350614 112.794226,127.83063 111.877523,126.905066 C110.95694,125.976603 110.442714,124.720058 110.448038,123.412022 L110.446709,123.412022 Z" id="路径" fill="#FF7238" opacity="0.48311942"></path>
                <path d="M12.2998311,217.205637 L41.7690036,217.205637 C44.4672224,217.205637 46.6606044,219.396934 46.6606044,222.142703 C46.6606044,224.867198 44.4379949,227.078442 41.7690036,227.078442 L12.2998311,227.078442 C10.997515,227.079615 9.74888479,226.55914 8.83240083,225.633088 C7.91393025,224.704627 7.4012244,223.449249 7.40685501,222.142703 C7.40685501,219.416879 9.62951121,217.205637 12.2998311,217.205637 Z" id="路径" fill="#FF7238" opacity="0.48311942"></path>
                <path d="M65.0605701,11.1067363 L72.3714012,11.1067363 C73.3573071,11.1003667 74.3050947,11.4875331 75.0049872,12.1825428 C75.7048798,12.8775526 76.099156,13.823087 76.1005496,14.809868 C76.1005496,16.8535713 74.4319318,18.5116702 72.3714012,18.5116704 L65.0605701,18.5116704 L65.0605701,25.8674067 C65.0605701,27.9416925 63.4264937,29.6184067 61.380577,29.6184067 C60.3971934,29.6113967 59.4571791,29.2122856 58.768712,28.5094616 C58.0778653,27.8046238 57.6938513,26.854751 57.7005838,25.8674067 L57.7005838,18.5116704 L50.3897527,18.5116704 C49.4052797,18.5208629 48.45806,18.1354217 47.7592883,17.4412857 C47.0586572,16.7442954 46.6634357,15.7972365 46.6606044,14.8085384 C46.6606044,12.7661648 48.3292222,11.1067363 50.3897527,11.1067363 L57.7005838,11.1067363 L57.7005838,3.75232958 C57.7005838,1.67804407 59.3346603,-2.66453526e-14 61.380577,-2.66453526e-14 C63.41188,-2.66453526e-14 65.0605701,1.67804407 65.0605701,3.75232958 L65.0605701,11.1067363 Z" id="路径" fill="#FF7238" opacity="0.48311942"></path>
                <path d="M363.140014,145.626824 L363.140014,140.64056 C363.137757,139.992134 362.87715,139.371398 362.415972,138.915978 C361.955883,138.46157 361.33254,138.211441 360.686242,138.22189 C359.346635,138.225324 358.25623,139.301304 358.233799,140.64189 L358.233799,145.626824 L353.278429,145.626824 C352.63277,145.629484 352.015009,145.892758 351.563313,146.355484 C351.111617,146.819538 350.863185,147.445813 350.872484,148.094692 C350.872484,149.417714 351.952569,150.56256 353.277101,150.56256 L358.23247,150.56256 L358.23247,155.548824 C358.23247,156.906417 359.332483,157.968824 360.686242,157.968824 C362.026367,157.966114 363.117572,156.889927 363.140014,155.548824 L363.140014,150.56256 L368.095383,150.56256 C369.445157,150.56256 370.5,149.457605 370.5,148.094692 C370.5,146.751725 369.431872,145.653417 368.095383,145.626824 L363.140014,145.626824 L363.140014,145.626824 Z" id="路径" fill="#FF7238" opacity="0.48311942"></path>
                <path d="M329,26.5 C320.715729,26.5 314,33.2157288 314,41.5 C314,49.7842712 320.715729,56.5 329,56.5 C337.284271,56.5 344,49.7842712 344,41.5 C344,33.2157288 337.284271,26.5 329,26.5 Z M329,33.5 C333.418278,33.5 337,37.081722 337,41.5 C337,45.918278 333.418278,49.5 329,49.5 C324.581722,49.5 321,45.918278 321,41.5 C321,37.081722 324.581722,33.5 329,33.5 Z" id="椭圆形" fill="#FF7238" fill-rule="nonzero" opacity="0.48311942"></path>
                <path d="M15,57.5 C6.71572875,57.5 0,64.2157288 0,72.5 C0,80.7842712 6.71572875,87.5 15,87.5 C23.2842712,87.5 30,80.7842712 30,72.5 C30,64.2157288 23.2842712,57.5 15,57.5 Z M15,64.5 C19.418278,64.5 23,68.081722 23,72.5 C23,76.918278 19.418278,80.5 15,80.5 C10.581722,80.5 7,76.918278 7,72.5 C7,68.081722 10.581722,64.5 15,64.5 Z" id="椭圆形备份" fill="#FF7238" fill-rule="nonzero" opacity="0.48311942"></path>
            </g>
        </g>
    </g>
</svg>