<?xml version="1.0" standalone="no"?><!DOCTYPE svg PUBLIC "-//W3C//DTD SVG 1.1//EN" "http://www.w3.org/Graphics/SVG/1.1/DTD/svg11.dtd"><svg  class="icon" viewBox="0 0 1024 1024" version="1.1" xmlns="http://www.w3.org/2000/svg"  xmlns:xlink="http://www.w3.org/1999/xlink" width="200" height="200"><defs><style type="text/css"></style></defs><path d="M938.666667 275.2a341.333333 341.333333 0 0 1-78.933334 75.946667v23.466666A520.533333 520.533333 0 0 1 331.946667 896a522.24 522.24 0 0 1-232.533334-53.76 10.666667 10.666667 0 0 1-6.4-9.813333v-4.693334a11.093333 11.093333 0 0 1 11.093334-11.093333 378.026667 378.026667 0 0 0 218.453333-78.506667 186.453333 186.453333 0 0 1-165.973333-109.226666 11.093333 11.093333 0 0 1 11.093333-15.36 170.666667 170.666667 0 0 0 64.853333-5.973334A186.026667 186.026667 0 0 1 85.333333 445.013333a11.093333 11.093333 0 0 1 15.36-11.093333 170.666667 170.666667 0 0 0 67.413334 14.506667 182.613333 182.613333 0 0 1-72.96-210.773334 23.04 23.04 0 0 1 38.826666-7.68 527.36 527.36 0 0 0 358.826667 165.546667 170.666667 170.666667 0 0 1-5.12-42.666667 186.026667 186.026667 0 0 1 320.426667-125.44 370.773333 370.773333 0 0 0 101.973333-35.413333 7.253333 7.253333 0 0 1 7.68 0 7.253333 7.253333 0 0 1 0 7.68 186.453333 186.453333 0 0 1-75.093333 85.333333 366.08 366.08 0 0 0 85.333333-20.48 6.826667 6.826667 0 0 1 7.68 0 7.253333 7.253333 0 0 1 2.986667 10.666667z" ></path></svg>
