<?xml version="1.0" standalone="no"?><!DOCTYPE svg PUBLIC "-//W3C//DTD SVG 1.1//EN" "http://www.w3.org/Graphics/SVG/1.1/DTD/svg11.dtd"><svg  class="icon" viewBox="0 0 1024 1024" version="1.1" xmlns="http://www.w3.org/2000/svg"  xmlns:xlink="http://www.w3.org/1999/xlink" width="200" height="200"><defs><style type="text/css"></style></defs><path d="M401.5 706q10.5-17 5.5-34.5t-22.5-25q-17-7-36.5-0.5t-30 23q-11 17-6.5 34.25t21.5 25.25 37.25 1.25 31.25-23.75zm47-60.5q4-6.5 1.75-13.25t-8.75-9.25q-7-2.5-14.25 2.5t-10.75 9.25q-8.5 15.5 6.5 22.5 7 2.5 14.5 2.5t11-9.25zm87 53.5q-22.5 51-79 75t-112 6q-53.5-17-73.75-63.25t3.25-93.75q23.5-46.5 75.75-69.5t105.25-9.5q55.5 14.5 79.25 59.75t1.25 95.25zm156-80q-4.5-48-44.5-85t-104.25-54.5-137.25-10.5q-111.5 11.5-184.75 70.75t-66.25 132.25q4.5 48 44.5 85t104.25 54.5 137.25 10.5q111.5-11.5 184.75-70.75t66.25-132.25zm154 2q0 34-18.5 69.75t-54.5 68.5-84.25 58.75-113 41.5-135.25 15.5-137.5-16.75-120.25-46.5-85.75-75.5-32.5-99.75q0-57.5 34.75-122.5t98.75-129q84.5-84.5 170.75-118t123.25 3.5q32.5 32 10 104.5-2 7-0.5 10t5 3.5 7.25 2.5 6.75-1.75l3-1q69.5-29.5 123-29.5t76.5 30.5q22.5 31.5 0 89-1 6.5-2.25 10t2.25 6.25 6 3.75 8.5 3q28.5 9 51.5 23.5t40 40.75 17 58.25zm-37-312q21 23.5 27.25 54.25t-3.25 58.75q-4 11.5-14.75 17t-22.25 2q-11.5-4-17-14.75t-2-22.25q10-31.5-12-55.5t-53.5-17.5q-12 2.5-22.5-4t-12.5-18.5q-2.5-12 4-22.25t18.5-12.75q30-6.5 59.5 2.75t50.5 32.75zm90.5-81.5q43.5 48 56.25 111.25t-6.75 120.75q-4.5 13.5-17 20t-26 2-20-17-2.5-26q14-41 5-86t-40-79q-31-34.5-74-47.75t-86.5-4.25q-14 3-26-4.75t-15-21.75 4.75-25.75 21.75-14.75q61.5-13 122 5.75t104 67.25z" ></path></svg>
